<svg xmlns="http://www.w3.org/2000/svg" width="17" height="27">
  <defs>
    <filter id="a" x="1390" y="1557" width="17" height="27" filterUnits="userSpaceOnUse">
      <feFlood result="flood" flood-color="#fff"/>
      <feComposite result="composite" operator="in" in2="SourceGraphic"/>
      <feBlend result="blend" in2="SourceGraphic"/>
    </filter>
  </defs>
  <path data-name="Forma 1" d="M1406.25 1557.76v-.01a2.558 2.558 0 00-1.81-.75h-11.88a2.565 2.565 0 00-2.56 2.56v21.88a2.561 2.561 0 002.56 2.56h11.88a2.561 2.561 0 002.56-2.56v-21.88a2.518 2.518 0 00-.75-1.8zm-7.75 24.5a.69.69 0 11.69-.69.691.691 0 01-.69.69zm6.47-4.34a1.673 1.673 0 01-1.67 1.67h-9.6a1.673 1.673 0 01-1.67-1.67v-16.3a1.675 1.675 0 011.67-1.68h9.6a1.675 1.675 0 011.67 1.68v16.3z" transform="translate(-1390 -1557)" fill-rule="evenodd" filter="url(#a)"/>
</svg>
